<mxfile host="65bd71144e">
    <diagram id="C5RBs43oDa-KdzZeNtuy" name="Page-1">
        <mxGraphModel dx="2037" dy="785" grid="1" gridSize="10" guides="1" tooltips="1" connect="1" arrows="1" fold="1" page="1" pageScale="1" pageWidth="827" pageHeight="1169" math="0" shadow="0">
            <root>
                <mxCell id="WIyWlLk6GJQsqaUBKTNV-0"/>
                <mxCell id="WIyWlLk6GJQsqaUBKTNV-1" parent="WIyWlLk6GJQsqaUBKTNV-0"/>
                <mxCell id="WvQ5Xp_77DTMqEq60Qx3-9" style="edgeStyle=orthogonalEdgeStyle;rounded=0;orthogonalLoop=1;jettySize=auto;html=1;exitX=0.5;exitY=1;exitDx=0;exitDy=0;entryX=0.5;entryY=0;entryDx=0;entryDy=0;" parent="WIyWlLk6GJQsqaUBKTNV-1" source="WvQ5Xp_77DTMqEq60Qx3-0" target="WvQ5Xp_77DTMqEq60Qx3-2" edge="1">
                    <mxGeometry relative="1" as="geometry">
                        <mxPoint x="190" y="249.9999999999999" as="targetPoint"/>
                    </mxGeometry>
                </mxCell>
                <mxCell id="WvQ5Xp_77DTMqEq60Qx3-0" value="start" style="ellipse;whiteSpace=wrap;html=1;" parent="WIyWlLk6GJQsqaUBKTNV-1" vertex="1">
                    <mxGeometry x="160" y="90" width="60" height="20" as="geometry"/>
                </mxCell>
                <mxCell id="w45_0w_ZlzXm1BA-nzwg-18" style="edgeStyle=orthogonalEdgeStyle;rounded=0;orthogonalLoop=1;jettySize=auto;html=1;exitX=0.5;exitY=1;exitDx=0;exitDy=0;entryX=0.5;entryY=0;entryDx=0;entryDy=0;" parent="WIyWlLk6GJQsqaUBKTNV-1" source="WvQ5Xp_77DTMqEq60Qx3-2" target="WvQ5Xp_77DTMqEq60Qx3-31" edge="1">
                    <mxGeometry relative="1" as="geometry"/>
                </mxCell>
                <mxCell id="WvQ5Xp_77DTMqEq60Qx3-2" value="initiaize" style="swimlane;" parent="WIyWlLk6GJQsqaUBKTNV-1" vertex="1">
                    <mxGeometry x="120" y="140" width="140" height="110" as="geometry"/>
                </mxCell>
                <mxCell id="WvQ5Xp_77DTMqEq60Qx3-25" value="main loop" style="swimlane;" parent="WIyWlLk6GJQsqaUBKTNV-1" vertex="1">
                    <mxGeometry x="100" y="290" width="280" height="610" as="geometry"/>
                </mxCell>
                <mxCell id="WvQ5Xp_77DTMqEq60Qx3-52" value="update all modules" style="rounded=0;whiteSpace=wrap;html=1;" parent="WvQ5Xp_77DTMqEq60Qx3-25" vertex="1">
                    <mxGeometry x="30" y="280" width="120" height="60" as="geometry"/>
                </mxCell>
                <mxCell id="WvQ5Xp_77DTMqEq60Qx3-17" value="sleep" style="rhombus;whiteSpace=wrap;html=1;" parent="WvQ5Xp_77DTMqEq60Qx3-25" vertex="1">
                    <mxGeometry x="50" y="420" width="80" height="80" as="geometry"/>
                </mxCell>
                <mxCell id="w45_0w_ZlzXm1BA-nzwg-14" style="edgeStyle=orthogonalEdgeStyle;rounded=0;orthogonalLoop=1;jettySize=auto;html=1;exitX=1;exitY=0.5;exitDx=0;exitDy=0;entryX=0.5;entryY=0;entryDx=0;entryDy=0;" parent="WvQ5Xp_77DTMqEq60Qx3-25" source="WvQ5Xp_77DTMqEq60Qx3-21" target="WvQ5Xp_77DTMqEq60Qx3-31" edge="1">
                    <mxGeometry relative="1" as="geometry"/>
                </mxCell>
                <mxCell id="WvQ5Xp_77DTMqEq60Qx3-21" value="nothing to do:&lt;br&gt;m0 sleep" style="rounded=0;whiteSpace=wrap;html=1;" parent="WvQ5Xp_77DTMqEq60Qx3-25" vertex="1">
                    <mxGeometry x="30" y="530" width="120" height="60" as="geometry"/>
                </mxCell>
                <mxCell id="WvQ5Xp_77DTMqEq60Qx3-22" style="edgeStyle=orthogonalEdgeStyle;rounded=0;orthogonalLoop=1;jettySize=auto;html=1;exitX=0.5;exitY=1;exitDx=0;exitDy=0;entryX=0.5;entryY=0;entryDx=0;entryDy=0;" parent="WvQ5Xp_77DTMqEq60Qx3-25" source="WvQ5Xp_77DTMqEq60Qx3-17" target="WvQ5Xp_77DTMqEq60Qx3-21" edge="1">
                    <mxGeometry relative="1" as="geometry"/>
                </mxCell>
                <mxCell id="w45_0w_ZlzXm1BA-nzwg-16" style="edgeStyle=orthogonalEdgeStyle;rounded=0;orthogonalLoop=1;jettySize=auto;html=1;exitX=0.5;exitY=1;exitDx=0;exitDy=0;entryX=0.5;entryY=0;entryDx=0;entryDy=0;" parent="WvQ5Xp_77DTMqEq60Qx3-25" source="WvQ5Xp_77DTMqEq60Qx3-45" target="WvQ5Xp_77DTMqEq60Qx3-31" edge="1">
                    <mxGeometry relative="1" as="geometry">
                        <Array as="points">
                            <mxPoint x="170" y="460"/>
                            <mxPoint x="170" y="100"/>
                            <mxPoint x="90" y="100"/>
                        </Array>
                    </mxGeometry>
                </mxCell>
                <mxCell id="WvQ5Xp_77DTMqEq60Qx3-45" value="n" style="text;html=1;strokeColor=none;fillColor=none;align=center;verticalAlign=middle;whiteSpace=wrap;rounded=0;" parent="WvQ5Xp_77DTMqEq60Qx3-25" vertex="1">
                    <mxGeometry x="100" y="430" width="60" height="30" as="geometry"/>
                </mxCell>
                <mxCell id="WvQ5Xp_77DTMqEq60Qx3-48" value="y" style="text;html=1;strokeColor=none;fillColor=none;align=center;verticalAlign=middle;whiteSpace=wrap;rounded=0;" parent="WvQ5Xp_77DTMqEq60Qx3-25" vertex="1">
                    <mxGeometry x="80" y="480" width="60" height="30" as="geometry"/>
                </mxCell>
                <mxCell id="w45_0w_ZlzXm1BA-nzwg-10" style="edgeStyle=orthogonalEdgeStyle;rounded=0;orthogonalLoop=1;jettySize=auto;html=1;exitX=0.5;exitY=1;exitDx=0;exitDy=0;entryX=0.5;entryY=0;entryDx=0;entryDy=0;" parent="WvQ5Xp_77DTMqEq60Qx3-25" source="WvQ5Xp_77DTMqEq60Qx3-3" target="WvQ5Xp_77DTMqEq60Qx3-17" edge="1">
                    <mxGeometry relative="1" as="geometry"/>
                </mxCell>
                <mxCell id="WvQ5Xp_77DTMqEq60Qx3-3" value="tick" style="swimlane;" parent="WvQ5Xp_77DTMqEq60Qx3-25" vertex="1">
                    <mxGeometry x="20" y="240" width="140" height="150" as="geometry"/>
                </mxCell>
                <mxCell id="WvQ5Xp_77DTMqEq60Qx3-31" value="errors" style="rhombus;whiteSpace=wrap;html=1;" parent="WvQ5Xp_77DTMqEq60Qx3-25" vertex="1">
                    <mxGeometry x="50" y="120" width="80" height="80" as="geometry"/>
                </mxCell>
                <mxCell id="WvQ5Xp_77DTMqEq60Qx3-33" style="edgeStyle=orthogonalEdgeStyle;rounded=0;orthogonalLoop=1;jettySize=auto;html=1;exitX=0.5;exitY=1;exitDx=0;exitDy=0;entryX=0.5;entryY=0;entryDx=0;entryDy=0;" parent="WvQ5Xp_77DTMqEq60Qx3-25" source="WvQ5Xp_77DTMqEq60Qx3-31" target="WvQ5Xp_77DTMqEq60Qx3-3" edge="1">
                    <mxGeometry relative="1" as="geometry"/>
                </mxCell>
                <mxCell id="WvQ5Xp_77DTMqEq60Qx3-49" value="y" style="text;html=1;strokeColor=none;fillColor=none;align=center;verticalAlign=middle;whiteSpace=wrap;rounded=0;" parent="WvQ5Xp_77DTMqEq60Qx3-25" vertex="1">
                    <mxGeometry x="20" y="130" width="60" height="30" as="geometry"/>
                </mxCell>
                <mxCell id="WvQ5Xp_77DTMqEq60Qx3-46" value="n" style="text;html=1;strokeColor=none;fillColor=none;align=center;verticalAlign=middle;whiteSpace=wrap;rounded=0;" parent="WvQ5Xp_77DTMqEq60Qx3-25" vertex="1">
                    <mxGeometry x="70" y="190" width="60" height="30" as="geometry"/>
                </mxCell>
                <mxCell id="WvQ5Xp_77DTMqEq60Qx3-36" style="edgeStyle=orthogonalEdgeStyle;rounded=0;orthogonalLoop=1;jettySize=auto;html=1;exitX=0;exitY=0.5;exitDx=0;exitDy=0;entryX=0.5;entryY=1;entryDx=0;entryDy=0;" parent="WIyWlLk6GJQsqaUBKTNV-1" source="WvQ5Xp_77DTMqEq60Qx3-31" target="WvQ5Xp_77DTMqEq60Qx3-35" edge="1">
                    <mxGeometry relative="1" as="geometry"/>
                </mxCell>
                <mxCell id="WvQ5Xp_77DTMqEq60Qx3-38" style="edgeStyle=orthogonalEdgeStyle;rounded=0;orthogonalLoop=1;jettySize=auto;html=1;exitX=0.5;exitY=0;exitDx=0;exitDy=0;entryX=0.5;entryY=0;entryDx=0;entryDy=0;" parent="WIyWlLk6GJQsqaUBKTNV-1" source="WvQ5Xp_77DTMqEq60Qx3-35" target="WvQ5Xp_77DTMqEq60Qx3-2" edge="1">
                    <mxGeometry relative="1" as="geometry"/>
                </mxCell>
                <mxCell id="WvQ5Xp_77DTMqEq60Qx3-41" style="edgeStyle=orthogonalEdgeStyle;rounded=0;orthogonalLoop=1;jettySize=auto;html=1;exitX=0;exitY=0.5;exitDx=0;exitDy=0;entryX=0.5;entryY=0;entryDx=0;entryDy=0;" parent="WIyWlLk6GJQsqaUBKTNV-1" source="WvQ5Xp_77DTMqEq60Qx3-35" target="WvQ5Xp_77DTMqEq60Qx3-40" edge="1">
                    <mxGeometry relative="1" as="geometry"/>
                </mxCell>
                <mxCell id="WvQ5Xp_77DTMqEq60Qx3-35" value="boot loops &lt;br&gt;&amp;gt; 5" style="rhombus;whiteSpace=wrap;html=1;" parent="WIyWlLk6GJQsqaUBKTNV-1" vertex="1">
                    <mxGeometry x="-30" y="190" width="80" height="80" as="geometry"/>
                </mxCell>
                <mxCell id="WvQ5Xp_77DTMqEq60Qx3-40" value="fail stop" style="ellipse;whiteSpace=wrap;html=1;" parent="WIyWlLk6GJQsqaUBKTNV-1" vertex="1">
                    <mxGeometry x="-100" y="250" width="50" height="30" as="geometry"/>
                </mxCell>
                <mxCell id="WvQ5Xp_77DTMqEq60Qx3-47" value="n" style="text;html=1;strokeColor=none;fillColor=none;align=center;verticalAlign=middle;whiteSpace=wrap;rounded=0;" parent="WIyWlLk6GJQsqaUBKTNV-1" vertex="1">
                    <mxGeometry x="-10" y="170" width="60" height="30" as="geometry"/>
                </mxCell>
                <mxCell id="WvQ5Xp_77DTMqEq60Qx3-50" value="y" style="text;html=1;strokeColor=none;fillColor=none;align=center;verticalAlign=middle;whiteSpace=wrap;rounded=0;" parent="WIyWlLk6GJQsqaUBKTNV-1" vertex="1">
                    <mxGeometry x="-60" y="200" width="60" height="30" as="geometry"/>
                </mxCell>
            </root>
        </mxGraphModel>
    </diagram>
</mxfile>